<?xml version="1.0" standalone="no"?>
<!DOCTYPE svg PUBLIC "-//W3C//DTD SVG 20010904//EN"
 "http://www.w3.org/TR/2001/REC-SVG-20010904/DTD/svg10.dtd">
<svg version="1.0" xmlns="http://www.w3.org/2000/svg"
 width="318.000000pt" height="318.000000pt" viewBox="0 0 318.000000 318.000000"
 preserveAspectRatio="xMidYMid meet">
<metadata>
Created by potrace 1.14, written by Peter Selinger 2001-2017
</metadata>
<g transform="translate(0.000000,318.000000) scale(0.100000,-0.100000)"
fill="#000000" stroke="none">
<path d="M1050 3100 l0 -60 -175 0 -175 0 0 -100 0 -100 -85 0 -85 0 0 -80 0
-80 -95 0 -95 0 0 -100 0 -100 -85 0 -85 0 0 -160 0 -160 -80 0 -80 0 0 -535
0 -535 80 0 c97 0 92 12 88 -200 l-3 -155 82 -3 83 -3 0 -79 0 -80 95 0 95 0
0 -100 0 -100 85 0 85 0 0 -80 0 -80 175 0 175 0 0 -100 0 -100 535 0 535 0 0
100 0 100 -535 0 -535 0 0 80 0 80 -175 0 -174 0 -3 98 -3 97 -82 3 -83 3 0
79 0 80 -95 0 -95 0 0 80 0 80 178 0 178 0 -1 -80 -1 -80 98 0 98 0 0 -80 0
-80 260 0 260 0 0 80 0 80 535 0 535 0 0 80 0 80 180 0 180 0 0 -80 0 -79 -97
-3 -98 -3 0 -75 0 -75 98 -3 97 -3 0 81 0 80 83 0 83 0 -1 178 0 177 83 3 82
3 0 534 0 534 -82 3 -83 3 0 155 0 155 -80 5 -80 5 -3 98 -3 97 -94 0 -95 0 0
80 0 80 -85 0 -85 0 0 100 0 100 -180 0 -180 0 0 60 0 60 -535 0 -535 0 0 -60z
m0 -520 l0 -100 98 0 97 0 -2 -142 c-1 -79 -2 -151 -2 -160 -1 -16 -12 -18
-96 -18 l-95 0 0 -95 0 -95 -175 0 -175 0 0 95 0 94 -82 3 -83 3 -2 135 c-3
191 -8 179 85 182 l77 3 3 98 3 97 174 0 175 0 0 -100z m360 -1590 l0 -260
-260 0 -260 0 0 254 c0 194 3 255 13 259 6 3 123 5 260 6 l247 0 0 -259z"/>
<path d="M2487 563 c-4 -3 -7 -48 -7 -100 l0 -93 -180 0 -181 0 3 -77 3 -78
178 -3 177 -2 0 80 0 80 85 0 85 0 0 100 0 100 -78 0 c-43 0 -82 -3 -85 -7z"/>
</g>
</svg>
